<?xml version="1.0" encoding="iso-8859-1"?>
<!-- Generator: Adobe Illustrator 19.0.0, SVG Export Plug-In . SVG Version: 6.00 Build 0)  -->
<svg version="1.1" id="Capa_1" xmlns="http://www.w3.org/2000/svg" xmlns:xlink="http://www.w3.org/1999/xlink" x="0px" y="0px" fill="url(#grad1)"
	 viewBox="0 0 512 512" style="enable-background:new 0 0 512 512;" xml:space="preserve">
	   <linearGradient id="grad1" xx1="0" x2="0" y1="0" y2="1">
      <stop offset="9%" style="stop-color:#70c06e;stop-opacity:1" />
      <stop offset="18%" style="stop-color:#5fc192;stop-opacity:1" />
      <stop offset="27%" style="stop-color:#34c4ec;stop-opacity:1" />
      <stop offset="36%" style="stop-color:#31c4f3;stop-opacity:1" />
      <stop offset="45%" style="stop-color:#8c2786;stop-opacity:1" />
      <stop offset="54%" style="stop-color:#b22264;stop-opacity:1" />
      <stop offset="63%" style="stop-color:#d61e45;stop-opacity:1" />
      <stop offset="72%" style="stop-color:red;stop-opacity:1" />
      <stop offset="81%" style="stop-color:#ff1700;stop-opacity:1" />
      <stop offset="90%" style="stop-color:#ff7100;stop-opacity:1" />
      <stop offset="99%" style="stop-color:#ff9500;stop-opacity:1" />
      
    </linearGradient>
<g>
	<g>
		<polygon points="339.392,258.624 512,367.744 512,144.896 		"/>
	</g>
</g>
<g>
	<g>
		<polygon points="0,144.896 0,367.744 172.608,258.624 		"/>
	</g>
</g>
<g>
	<g>
		<path d="M480,80H32C16.032,80,3.36,91.904,0.96,107.232L256,275.264l255.04-168.032C508.64,91.904,495.968,80,480,80z"/>
	</g>
</g>
<g>
	<g>
		<path d="M310.08,277.952l-45.28,29.824c-2.688,1.76-5.728,2.624-8.8,2.624c-3.072,0-6.112-0.864-8.8-2.624l-45.28-29.856
			L1.024,404.992C3.488,420.192,16.096,432,32,432h448c15.904,0,28.512-11.808,30.976-27.008L310.08,277.952z"/>
	</g>
</g>
<g>
</g>
<g>
</g>
<g>
</g>
<g>
</g>
<g>
</g>
<g>
</g>
<g>
</g>
<g>
</g>
<g>
</g>
<g>
</g>
<g>
</g>
<g>
</g>
<g>
</g>
<g>
</g>
<g>
</g>
</svg>
